<mxfile host="app.diagrams.net" agent="Mozilla/5.0 (Windows NT 10.0; Win64; x64) AppleWebKit/537.36 (KHTML, like Gecko) Chrome/141.0.0.0 Safari/537.36" version="28.2.8">
  <diagram name="Page-1" id="wI6gmsKIBK1dupv8iTaY">
    <mxGraphModel dx="4124" dy="2530" grid="1" gridSize="10" guides="1" tooltips="1" connect="1" arrows="1" fold="1" page="1" pageScale="1" pageWidth="1169" pageHeight="827" math="0" shadow="0">
      <root>
        <mxCell id="0" />
        <mxCell id="1" parent="0" />
        <mxCell id="wxQ_5KU_kuyzXuNe257k-1" value="" style="rounded=0;whiteSpace=wrap;html=1;" parent="1" vertex="1">
          <mxGeometry x="320" y="80" width="1940" height="1390" as="geometry" />
        </mxCell>
        <mxCell id="wxQ_5KU_kuyzXuNe257k-2" value="" style="rounded=0;whiteSpace=wrap;html=1;fillColor=#D4E1F5;" parent="1" vertex="1">
          <mxGeometry x="339" y="400" width="680" height="1030" as="geometry" />
        </mxCell>
        <mxCell id="wxQ_5KU_kuyzXuNe257k-3" value="" style="rounded=0;whiteSpace=wrap;html=1;fillColor=#D5E8D4;" parent="1" vertex="1">
          <mxGeometry x="1060" y="110" width="1150" height="1320" as="geometry" />
        </mxCell>
        <mxCell id="wxQ_5KU_kuyzXuNe257k-4" value="" style="rounded=0;whiteSpace=wrap;html=1;fillColor=#FFEAE5;" parent="1" vertex="1">
          <mxGeometry x="339" y="110" width="680" height="260" as="geometry" />
        </mxCell>
        <mxCell id="wxQ_5KU_kuyzXuNe257k-5" value="AWS Organizations" style="text;html=1;whiteSpace=wrap;strokeColor=none;fillColor=none;align=center;verticalAlign=middle;rounded=0;" parent="1" vertex="1">
          <mxGeometry x="320" y="80" width="110" height="30" as="geometry" />
        </mxCell>
        <mxCell id="wxQ_5KU_kuyzXuNe257k-6" value="Root/Mgmt Account" style="text;html=1;whiteSpace=wrap;strokeColor=none;fillColor=none;align=center;verticalAlign=middle;rounded=0;" parent="1" vertex="1">
          <mxGeometry x="360" y="110" width="110" height="30" as="geometry" />
        </mxCell>
        <mxCell id="wxQ_5KU_kuyzXuNe257k-7" value="Dev Account" style="text;html=1;whiteSpace=wrap;strokeColor=none;fillColor=none;align=center;verticalAlign=middle;rounded=0;" parent="1" vertex="1">
          <mxGeometry x="345" y="432" width="110" height="30" as="geometry" />
        </mxCell>
        <mxCell id="wxQ_5KU_kuyzXuNe257k-8" value="Prod Account" style="text;html=1;whiteSpace=wrap;strokeColor=none;fillColor=none;align=center;verticalAlign=middle;rounded=0;" parent="1" vertex="1">
          <mxGeometry x="1060" y="110" width="110" height="30" as="geometry" />
        </mxCell>
        <mxCell id="5vOCUGP1dj-LRyaD1-tD-84" style="edgeStyle=orthogonalEdgeStyle;rounded=0;orthogonalLoop=1;jettySize=auto;html=1;" edge="1" parent="1" source="5vOCUGP1dj-LRyaD1-tD-7" target="5vOCUGP1dj-LRyaD1-tD-8">
          <mxGeometry relative="1" as="geometry">
            <Array as="points">
              <mxPoint x="1628" y="160" />
              <mxPoint x="1628" y="200" />
              <mxPoint x="1635" y="200" />
            </Array>
          </mxGeometry>
        </mxCell>
        <mxCell id="5vOCUGP1dj-LRyaD1-tD-7" value="Route53" style="sketch=0;points=[[0,0,0],[0.25,0,0],[0.5,0,0],[0.75,0,0],[1,0,0],[0,1,0],[0.25,1,0],[0.5,1,0],[0.75,1,0],[1,1,0],[0,0.25,0],[0,0.5,0],[0,0.75,0],[1,0.25,0],[1,0.5,0],[1,0.75,0]];outlineConnect=0;fontColor=#232F3E;fillColor=#8C4FFF;strokeColor=#ffffff;dashed=0;verticalLabelPosition=bottom;verticalAlign=top;align=center;html=1;fontSize=12;fontStyle=0;aspect=fixed;shape=mxgraph.aws4.resourceIcon;resIcon=mxgraph.aws4.route_53;" vertex="1" parent="1">
          <mxGeometry x="1530" y="110" width="78" height="78" as="geometry" />
        </mxCell>
        <mxCell id="5vOCUGP1dj-LRyaD1-tD-8" value="Cloudfront&amp;nbsp;" style="sketch=0;points=[[0,0,0],[0.25,0,0],[0.5,0,0],[0.75,0,0],[1,0,0],[0,1,0],[0.25,1,0],[0.5,1,0],[0.75,1,0],[1,1,0],[0,0.25,0],[0,0.5,0],[0,0.75,0],[1,0.25,0],[1,0.5,0],[1,0.75,0]];outlineConnect=0;fontColor=#232F3E;fillColor=#8C4FFF;strokeColor=#ffffff;dashed=0;verticalLabelPosition=bottom;verticalAlign=top;align=center;html=1;fontSize=12;fontStyle=0;aspect=fixed;shape=mxgraph.aws4.resourceIcon;resIcon=mxgraph.aws4.cloudfront;" vertex="1" parent="1">
          <mxGeometry x="1595.5" y="220" width="78" height="78" as="geometry" />
        </mxCell>
        <mxCell id="5vOCUGP1dj-LRyaD1-tD-11" value="S3 Static Files" style="sketch=0;points=[[0,0,0],[0.25,0,0],[0.5,0,0],[0.75,0,0],[1,0,0],[0,1,0],[0.25,1,0],[0.5,1,0],[0.75,1,0],[1,1,0],[0,0.25,0],[0,0.5,0],[0,0.75,0],[1,0.25,0],[1,0.5,0],[1,0.75,0]];outlineConnect=0;fontColor=#232F3E;fillColor=#7AA116;strokeColor=#ffffff;dashed=0;verticalLabelPosition=bottom;verticalAlign=top;align=center;html=1;fontSize=12;fontStyle=0;aspect=fixed;shape=mxgraph.aws4.resourceIcon;resIcon=mxgraph.aws4.s3;" vertex="1" parent="1">
          <mxGeometry x="820" y="180" width="78" height="78" as="geometry" />
        </mxCell>
        <mxCell id="5vOCUGP1dj-LRyaD1-tD-13" value="" style="rounded=0;whiteSpace=wrap;html=1;fillColor=#FFFADA;" vertex="1" parent="1">
          <mxGeometry x="1070" y="430" width="1130" height="940" as="geometry" />
        </mxCell>
        <mxCell id="5vOCUGP1dj-LRyaD1-tD-157" style="edgeStyle=orthogonalEdgeStyle;rounded=0;orthogonalLoop=1;jettySize=auto;html=1;exitX=1;exitY=0.5;exitDx=0;exitDy=0;exitPerimeter=0;" edge="1" parent="1" source="5vOCUGP1dj-LRyaD1-tD-15" target="5vOCUGP1dj-LRyaD1-tD-88">
          <mxGeometry relative="1" as="geometry">
            <Array as="points">
              <mxPoint x="1010" y="227" />
              <mxPoint x="1010" y="400" />
              <mxPoint x="1080" y="400" />
              <mxPoint x="1080" y="1310" />
            </Array>
          </mxGeometry>
        </mxCell>
        <mxCell id="5vOCUGP1dj-LRyaD1-tD-15" value="Central private ECR" style="sketch=0;points=[[0,0,0],[0.25,0,0],[0.5,0,0],[0.75,0,0],[1,0,0],[0,1,0],[0.25,1,0],[0.5,1,0],[0.75,1,0],[1,1,0],[0,0.25,0],[0,0.5,0],[0,0.75,0],[1,0.25,0],[1,0.5,0],[1,0.75,0]];outlineConnect=0;fontColor=#232F3E;fillColor=#ED7100;strokeColor=#ffffff;dashed=0;verticalLabelPosition=bottom;verticalAlign=top;align=center;html=1;fontSize=12;fontStyle=0;aspect=fixed;shape=mxgraph.aws4.resourceIcon;resIcon=mxgraph.aws4.ecr;" vertex="1" parent="1">
          <mxGeometry x="920" y="180" width="78" height="78" as="geometry" />
        </mxCell>
        <mxCell id="5vOCUGP1dj-LRyaD1-tD-161" value="" style="rounded=0;whiteSpace=wrap;html=1;" vertex="1" parent="1">
          <mxGeometry x="1330" y="462" width="580" height="90" as="geometry" />
        </mxCell>
        <mxCell id="5vOCUGP1dj-LRyaD1-tD-16" value="" style="rounded=0;whiteSpace=wrap;html=1;fillColor=#FFF1DB;" vertex="1" parent="1">
          <mxGeometry x="370" y="500" width="640" height="870" as="geometry" />
        </mxCell>
        <mxCell id="5vOCUGP1dj-LRyaD1-tD-198" style="edgeStyle=orthogonalEdgeStyle;rounded=0;orthogonalLoop=1;jettySize=auto;html=1;exitX=0.145;exitY=0.145;exitDx=0;exitDy=0;exitPerimeter=0;" edge="1" parent="1" source="5vOCUGP1dj-LRyaD1-tD-17">
          <mxGeometry relative="1" as="geometry">
            <mxPoint x="770" y="258" as="targetPoint" />
            <Array as="points">
              <mxPoint x="1603" y="420" />
              <mxPoint x="770" y="420" />
            </Array>
          </mxGeometry>
        </mxCell>
        <mxCell id="5vOCUGP1dj-LRyaD1-tD-17" value="Internet facing ALB" style="outlineConnect=0;dashed=0;verticalLabelPosition=bottom;verticalAlign=top;align=center;html=1;shape=mxgraph.aws3.application_load_balancer;fillColor=#F58534;gradientColor=none;" vertex="1" parent="1">
          <mxGeometry x="1595.5" y="470" width="54.5" height="54" as="geometry" />
        </mxCell>
        <mxCell id="5vOCUGP1dj-LRyaD1-tD-18" value="Central S3 for tfstate" style="sketch=0;points=[[0,0,0],[0.25,0,0],[0.5,0,0],[0.75,0,0],[1,0,0],[0,1,0],[0.25,1,0],[0.5,1,0],[0.75,1,0],[1,1,0],[0,0.25,0],[0,0.5,0],[0,0.75,0],[1,0.25,0],[1,0.5,0],[1,0.75,0]];outlineConnect=0;fontColor=#232F3E;fillColor=#7AA116;strokeColor=#ffffff;dashed=0;verticalLabelPosition=bottom;verticalAlign=top;align=center;html=1;fontSize=12;fontStyle=0;aspect=fixed;shape=mxgraph.aws4.resourceIcon;resIcon=mxgraph.aws4.s3;" vertex="1" parent="1">
          <mxGeometry x="590" y="170" width="78" height="78" as="geometry" />
        </mxCell>
        <mxCell id="5vOCUGP1dj-LRyaD1-tD-19" value="EKS" style="sketch=0;points=[[0,0,0],[0.25,0,0],[0.5,0,0],[0.75,0,0],[1,0,0],[0,1,0],[0.25,1,0],[0.5,1,0],[0.75,1,0],[1,1,0],[0,0.25,0],[0,0.5,0],[0,0.75,0],[1,0.25,0],[1,0.5,0],[1,0.75,0]];outlineConnect=0;fontColor=#232F3E;fillColor=#ED7100;strokeColor=#ffffff;dashed=0;verticalLabelPosition=bottom;verticalAlign=top;align=center;html=1;fontSize=12;fontStyle=0;aspect=fixed;shape=mxgraph.aws4.resourceIcon;resIcon=mxgraph.aws4.eks;" vertex="1" parent="1">
          <mxGeometry x="2000" y="324" width="78" height="78" as="geometry" />
        </mxCell>
        <mxCell id="5vOCUGP1dj-LRyaD1-tD-20" value="EKS" style="sketch=0;points=[[0,0,0],[0.25,0,0],[0.5,0,0],[0.75,0,0],[1,0,0],[0,1,0],[0.25,1,0],[0.5,1,0],[0.75,1,0],[1,1,0],[0,0.25,0],[0,0.5,0],[0,0.75,0],[1,0.25,0],[1,0.5,0],[1,0.75,0]];outlineConnect=0;fontColor=#232F3E;fillColor=#ED7100;strokeColor=#ffffff;dashed=0;verticalLabelPosition=bottom;verticalAlign=top;align=center;html=1;fontSize=12;fontStyle=0;aspect=fixed;shape=mxgraph.aws4.resourceIcon;resIcon=mxgraph.aws4.eks;" vertex="1" parent="1">
          <mxGeometry x="889" y="410" width="78" height="78" as="geometry" />
        </mxCell>
        <mxCell id="5vOCUGP1dj-LRyaD1-tD-213" style="edgeStyle=orthogonalEdgeStyle;rounded=0;orthogonalLoop=1;jettySize=auto;html=1;" edge="1" parent="1" source="5vOCUGP1dj-LRyaD1-tD-88" target="5vOCUGP1dj-LRyaD1-tD-200">
          <mxGeometry relative="1" as="geometry">
            <Array as="points">
              <mxPoint x="1040" y="1299" />
              <mxPoint x="1040" y="360" />
              <mxPoint x="749" y="360" />
            </Array>
          </mxGeometry>
        </mxCell>
        <mxCell id="5vOCUGP1dj-LRyaD1-tD-88" value="VPC Endpoints: S3 Gw, ECR, Logs" style="sketch=0;outlineConnect=0;fontColor=#232F3E;gradientColor=none;fillColor=#8C4FFF;strokeColor=none;dashed=0;verticalLabelPosition=bottom;verticalAlign=top;align=center;html=1;fontSize=12;fontStyle=0;aspect=fixed;pointerEvents=1;shape=mxgraph.aws4.endpoints;" vertex="1" parent="1">
          <mxGeometry x="1580" y="1260" width="78" height="78" as="geometry" />
        </mxCell>
        <mxCell id="5vOCUGP1dj-LRyaD1-tD-75" style="edgeStyle=orthogonalEdgeStyle;rounded=0;orthogonalLoop=1;jettySize=auto;html=1;entryX=0.5;entryY=0.037;entryDx=0;entryDy=0;entryPerimeter=0;" edge="1" parent="1" source="5vOCUGP1dj-LRyaD1-tD-17" target="5vOCUGP1dj-LRyaD1-tD-53">
          <mxGeometry relative="1" as="geometry" />
        </mxCell>
        <mxCell id="5vOCUGP1dj-LRyaD1-tD-113" style="edgeStyle=orthogonalEdgeStyle;rounded=0;orthogonalLoop=1;jettySize=auto;html=1;entryX=1;entryY=0.5;entryDx=0;entryDy=0;" edge="1" parent="1" source="5vOCUGP1dj-LRyaD1-tD-19" target="5vOCUGP1dj-LRyaD1-tD-100">
          <mxGeometry relative="1" as="geometry">
            <Array as="points">
              <mxPoint x="2110" y="495" />
              <mxPoint x="2110" y="895" />
            </Array>
          </mxGeometry>
        </mxCell>
        <mxCell id="5vOCUGP1dj-LRyaD1-tD-87" style="edgeStyle=orthogonalEdgeStyle;rounded=0;orthogonalLoop=1;jettySize=auto;html=1;entryX=1;entryY=0.5;entryDx=0;entryDy=0;" edge="1" parent="1" source="5vOCUGP1dj-LRyaD1-tD-19" target="5vOCUGP1dj-LRyaD1-tD-55">
          <mxGeometry relative="1" as="geometry">
            <Array as="points">
              <mxPoint x="1970" y="520" />
              <mxPoint x="1970" y="560" />
              <mxPoint x="1610" y="560" />
              <mxPoint x="1610" y="895" />
            </Array>
          </mxGeometry>
        </mxCell>
        <mxCell id="5vOCUGP1dj-LRyaD1-tD-85" style="edgeStyle=orthogonalEdgeStyle;rounded=0;orthogonalLoop=1;jettySize=auto;html=1;entryX=1;entryY=0.5;entryDx=0;entryDy=0;" edge="1" parent="1" source="5vOCUGP1dj-LRyaD1-tD-19" target="5vOCUGP1dj-LRyaD1-tD-53">
          <mxGeometry relative="1" as="geometry">
            <Array as="points">
              <mxPoint x="1960" y="495" />
              <mxPoint x="1960" y="560" />
              <mxPoint x="1620" y="560" />
              <mxPoint x="1620" y="690" />
            </Array>
          </mxGeometry>
        </mxCell>
        <mxCell id="5vOCUGP1dj-LRyaD1-tD-119" style="edgeStyle=orthogonalEdgeStyle;rounded=0;orthogonalLoop=1;jettySize=auto;html=1;" edge="1" parent="1" source="5vOCUGP1dj-LRyaD1-tD-39" target="5vOCUGP1dj-LRyaD1-tD-88">
          <mxGeometry relative="1" as="geometry">
            <Array as="points">
              <mxPoint x="1370" y="1290" />
            </Array>
          </mxGeometry>
        </mxCell>
        <mxCell id="5vOCUGP1dj-LRyaD1-tD-120" style="edgeStyle=orthogonalEdgeStyle;rounded=0;orthogonalLoop=1;jettySize=auto;html=1;" edge="1" parent="1" source="5vOCUGP1dj-LRyaD1-tD-95" target="5vOCUGP1dj-LRyaD1-tD-88">
          <mxGeometry relative="1" as="geometry">
            <Array as="points">
              <mxPoint x="1879" y="1299" />
            </Array>
          </mxGeometry>
        </mxCell>
        <mxCell id="5vOCUGP1dj-LRyaD1-tD-118" style="edgeStyle=orthogonalEdgeStyle;rounded=0;orthogonalLoop=1;jettySize=auto;html=1;" edge="1" parent="1" source="5vOCUGP1dj-LRyaD1-tD-17" target="5vOCUGP1dj-LRyaD1-tD-98">
          <mxGeometry relative="1" as="geometry" />
        </mxCell>
        <mxCell id="5vOCUGP1dj-LRyaD1-tD-123" style="edgeStyle=orthogonalEdgeStyle;rounded=0;orthogonalLoop=1;jettySize=auto;html=1;entryX=1;entryY=0.5;entryDx=0;entryDy=0;" edge="1" parent="1" source="5vOCUGP1dj-LRyaD1-tD-19" target="5vOCUGP1dj-LRyaD1-tD-98">
          <mxGeometry relative="1" as="geometry">
            <Array as="points">
              <mxPoint x="2100" y="520" />
              <mxPoint x="2100" y="690" />
            </Array>
          </mxGeometry>
        </mxCell>
        <mxCell id="5vOCUGP1dj-LRyaD1-tD-124" value="Prod VPC" style="text;html=1;whiteSpace=wrap;strokeColor=none;fillColor=none;align=center;verticalAlign=middle;rounded=0;" vertex="1" parent="1">
          <mxGeometry x="1100" y="462" width="60" height="30" as="geometry" />
        </mxCell>
        <mxCell id="5vOCUGP1dj-LRyaD1-tD-128" value="" style="group" vertex="1" connectable="0" parent="1">
          <mxGeometry x="-150" y="180" width="340" height="200" as="geometry" />
        </mxCell>
        <mxCell id="5vOCUGP1dj-LRyaD1-tD-125" value="" style="rounded=0;whiteSpace=wrap;html=1;" vertex="1" parent="5vOCUGP1dj-LRyaD1-tD-128">
          <mxGeometry width="340" height="200" as="geometry" />
        </mxCell>
        <mxCell id="5vOCUGP1dj-LRyaD1-tD-126" value="" style="rounded=0;whiteSpace=wrap;html=1;align=left;" vertex="1" parent="5vOCUGP1dj-LRyaD1-tD-128">
          <mxGeometry x="5" y="50" width="330" height="110" as="geometry" />
        </mxCell>
        <mxCell id="wxQ_5KU_kuyzXuNe257k-10" value="Github Actions" style="text;html=1;whiteSpace=wrap;strokeColor=none;fillColor=none;align=center;verticalAlign=middle;rounded=0;" parent="5vOCUGP1dj-LRyaD1-tD-128" vertex="1">
          <mxGeometry x="5" y="10" width="110" height="30" as="geometry" />
        </mxCell>
        <mxCell id="5vOCUGP1dj-LRyaD1-tD-127" value="&lt;div&gt;&lt;div&gt;&lt;br&gt;&lt;/div&gt;&lt;div&gt;1. Test &amp;amp; Lint&lt;/div&gt;&lt;div&gt;2. Security Scan (Snyk/Trivy)&lt;/div&gt;&lt;div&gt;3. Docker Build (multi-stage)&lt;/div&gt;&lt;div&gt;4. Docker push via OIDC Auth&lt;/div&gt;&lt;/div&gt;&lt;div&gt;&lt;br&gt;&lt;/div&gt;" style="text;html=1;whiteSpace=wrap;strokeColor=none;fillColor=none;align=left;verticalAlign=middle;rounded=0;" vertex="1" parent="5vOCUGP1dj-LRyaD1-tD-128">
          <mxGeometry x="80" y="66.5" width="180" height="67" as="geometry" />
        </mxCell>
        <mxCell id="5vOCUGP1dj-LRyaD1-tD-129" style="edgeStyle=orthogonalEdgeStyle;rounded=0;orthogonalLoop=1;jettySize=auto;html=1;entryX=0.5;entryY=0;entryDx=0;entryDy=0;entryPerimeter=0;" edge="1" parent="1" source="5vOCUGP1dj-LRyaD1-tD-125" target="5vOCUGP1dj-LRyaD1-tD-15">
          <mxGeometry relative="1" as="geometry" />
        </mxCell>
        <mxCell id="5vOCUGP1dj-LRyaD1-tD-130" style="edgeStyle=orthogonalEdgeStyle;rounded=0;orthogonalLoop=1;jettySize=auto;html=1;" edge="1" parent="1" source="5vOCUGP1dj-LRyaD1-tD-126" target="5vOCUGP1dj-LRyaD1-tD-18">
          <mxGeometry relative="1" as="geometry">
            <Array as="points">
              <mxPoint x="570" y="285" />
              <mxPoint x="570" y="219" />
            </Array>
          </mxGeometry>
        </mxCell>
        <mxCell id="5vOCUGP1dj-LRyaD1-tD-132" value="" style="rounded=0;whiteSpace=wrap;html=1;" vertex="1" parent="1">
          <mxGeometry x="490" y="600" width="420" height="716" as="geometry" />
        </mxCell>
        <mxCell id="5vOCUGP1dj-LRyaD1-tD-154" style="edgeStyle=orthogonalEdgeStyle;rounded=0;orthogonalLoop=1;jettySize=auto;html=1;" edge="1" parent="1" source="5vOCUGP1dj-LRyaD1-tD-133" target="5vOCUGP1dj-LRyaD1-tD-153">
          <mxGeometry relative="1" as="geometry">
            <Array as="points">
              <mxPoint x="700" y="1335" />
            </Array>
          </mxGeometry>
        </mxCell>
        <mxCell id="5vOCUGP1dj-LRyaD1-tD-133" value="&#xa;&lt;span style=&quot;color: rgb(0, 0, 0); font-family: Helvetica; font-size: 12px; font-style: normal; font-variant-ligatures: normal; font-variant-caps: normal; font-weight: 400; letter-spacing: normal; orphans: 2; text-align: center; text-indent: 0px; text-transform: none; widows: 2; word-spacing: 0px; -webkit-text-stroke-width: 0px; white-space: normal; background-color: rgb(236, 236, 236); text-decoration-thickness: initial; text-decoration-style: initial; text-decoration-color: initial; display: inline !important; float: none;&quot;&gt;Az1&amp;nbsp;&lt;/span&gt;&#xa;&#xa;" style="rounded=0;whiteSpace=wrap;html=1;" vertex="1" parent="1">
          <mxGeometry x="509" y="630" width="380" height="666" as="geometry" />
        </mxCell>
        <mxCell id="5vOCUGP1dj-LRyaD1-tD-134" value="Az1&amp;nbsp;" style="text;html=1;whiteSpace=wrap;strokeColor=none;fillColor=none;align=center;verticalAlign=middle;rounded=0;" vertex="1" parent="1">
          <mxGeometry x="480" y="602" width="70.5" height="30" as="geometry" />
        </mxCell>
        <mxCell id="5vOCUGP1dj-LRyaD1-tD-135" style="edgeStyle=orthogonalEdgeStyle;rounded=0;orthogonalLoop=1;jettySize=auto;html=1;entryX=0.5;entryY=0;entryDx=0;entryDy=0;" edge="1" parent="1" source="5vOCUGP1dj-LRyaD1-tD-136" target="5vOCUGP1dj-LRyaD1-tD-138">
          <mxGeometry relative="1" as="geometry" />
        </mxCell>
        <mxCell id="5vOCUGP1dj-LRyaD1-tD-136" value="" style="rounded=0;whiteSpace=wrap;html=1;" vertex="1" parent="1">
          <mxGeometry x="525" y="686" width="350" height="160" as="geometry" />
        </mxCell>
        <mxCell id="5vOCUGP1dj-LRyaD1-tD-137" style="edgeStyle=orthogonalEdgeStyle;rounded=0;orthogonalLoop=1;jettySize=auto;html=1;entryX=0.5;entryY=0;entryDx=0;entryDy=0;" edge="1" parent="1" source="5vOCUGP1dj-LRyaD1-tD-138" target="5vOCUGP1dj-LRyaD1-tD-139">
          <mxGeometry relative="1" as="geometry" />
        </mxCell>
        <mxCell id="5vOCUGP1dj-LRyaD1-tD-138" value="" style="rounded=0;whiteSpace=wrap;html=1;" vertex="1" parent="1">
          <mxGeometry x="525" y="891" width="350" height="160" as="geometry" />
        </mxCell>
        <mxCell id="5vOCUGP1dj-LRyaD1-tD-139" value="" style="rounded=0;whiteSpace=wrap;html=1;" vertex="1" parent="1">
          <mxGeometry x="524" y="1116" width="350" height="160" as="geometry" />
        </mxCell>
        <mxCell id="5vOCUGP1dj-LRyaD1-tD-140" value="Private Subnet" style="text;html=1;whiteSpace=wrap;strokeColor=none;fillColor=none;align=center;verticalAlign=middle;rounded=0;" vertex="1" parent="1">
          <mxGeometry x="509" y="640" width="120" height="20" as="geometry" />
        </mxCell>
        <mxCell id="5vOCUGP1dj-LRyaD1-tD-141" value="Frontend SG" style="text;html=1;whiteSpace=wrap;strokeColor=none;fillColor=none;align=center;verticalAlign=middle;rounded=0;" vertex="1" parent="1">
          <mxGeometry x="509" y="688" width="120" height="20" as="geometry" />
        </mxCell>
        <mxCell id="5vOCUGP1dj-LRyaD1-tD-142" value="Backend SG" style="text;html=1;whiteSpace=wrap;strokeColor=none;fillColor=none;align=center;verticalAlign=middle;rounded=0;" vertex="1" parent="1">
          <mxGeometry x="509" y="891" width="120" height="20" as="geometry" />
        </mxCell>
        <mxCell id="5vOCUGP1dj-LRyaD1-tD-143" value="RDS SG" style="text;html=1;whiteSpace=wrap;strokeColor=none;fillColor=none;align=center;verticalAlign=middle;rounded=0;" vertex="1" parent="1">
          <mxGeometry x="500" y="1116" width="120" height="20" as="geometry" />
        </mxCell>
        <mxCell id="5vOCUGP1dj-LRyaD1-tD-144" value="&lt;br&gt;&lt;span style=&quot;color: rgb(35, 47, 62); font-family: Helvetica; font-size: 12px; font-style: normal; font-variant-ligatures: normal; font-variant-caps: normal; font-weight: 400; letter-spacing: normal; orphans: 2; text-align: center; text-indent: 0px; text-transform: none; widows: 2; word-spacing: 0px; -webkit-text-stroke-width: 0px; white-space: nowrap; background-color: rgb(236, 236, 236); text-decoration-thickness: initial; text-decoration-style: initial; text-decoration-color: initial; float: none; display: inline !important;&quot;&gt;Frontend Pod&lt;/span&gt;&lt;div&gt;&lt;br/&gt;&lt;/div&gt;" style="sketch=0;points=[[0,0,0],[0.25,0,0],[0.5,0,0],[0.75,0,0],[1,0,0],[0,1,0],[0.25,1,0],[0.5,1,0],[0.75,1,0],[1,1,0],[0,0.25,0],[0,0.5,0],[0,0.75,0],[1,0.25,0],[1,0.5,0],[1,0.75,0]];outlineConnect=0;fontColor=#232F3E;fillColor=#ED7100;strokeColor=#ffffff;dashed=0;verticalLabelPosition=bottom;verticalAlign=top;align=center;html=1;fontSize=12;fontStyle=0;aspect=fixed;shape=mxgraph.aws4.resourceIcon;resIcon=mxgraph.aws4.fargate;" vertex="1" parent="1">
          <mxGeometry x="661" y="716" width="78" height="78" as="geometry" />
        </mxCell>
        <mxCell id="5vOCUGP1dj-LRyaD1-tD-205" style="edgeStyle=orthogonalEdgeStyle;rounded=0;orthogonalLoop=1;jettySize=auto;html=1;exitX=1;exitY=1;exitDx=0;exitDy=0;exitPerimeter=0;" edge="1" parent="1" source="5vOCUGP1dj-LRyaD1-tD-145" target="5vOCUGP1dj-LRyaD1-tD-204">
          <mxGeometry relative="1" as="geometry" />
        </mxCell>
        <mxCell id="5vOCUGP1dj-LRyaD1-tD-145" value="&#xa;&lt;span style=&quot;color: rgb(35, 47, 62); font-family: Helvetica; font-size: 12px; font-style: normal; font-variant-ligatures: normal; font-variant-caps: normal; font-weight: 400; letter-spacing: normal; orphans: 2; text-align: center; text-indent: 0px; text-transform: none; widows: 2; word-spacing: 0px; -webkit-text-stroke-width: 0px; white-space: nowrap; background-color: rgb(236, 236, 236); text-decoration-thickness: initial; text-decoration-style: initial; text-decoration-color: initial; display: inline !important; float: none;&quot;&gt;Backend Pod&lt;/span&gt;&#xa;&#xa;" style="sketch=0;points=[[0,0,0],[0.25,0,0],[0.5,0,0],[0.75,0,0],[1,0,0],[0,1,0],[0.25,1,0],[0.5,1,0],[0.75,1,0],[1,1,0],[0,0.25,0],[0,0.5,0],[0,0.75,0],[1,0.25,0],[1,0.5,0],[1,0.75,0]];outlineConnect=0;fontColor=#232F3E;fillColor=#ED7100;strokeColor=#ffffff;dashed=0;verticalLabelPosition=bottom;verticalAlign=top;align=center;html=1;fontSize=12;fontStyle=0;aspect=fixed;shape=mxgraph.aws4.resourceIcon;resIcon=mxgraph.aws4.fargate;" vertex="1" parent="1">
          <mxGeometry x="661" y="916" width="78" height="78" as="geometry" />
        </mxCell>
        <mxCell id="5vOCUGP1dj-LRyaD1-tD-147" value="RDS" style="sketch=0;points=[[0,0,0],[0.25,0,0],[0.5,0,0],[0.75,0,0],[1,0,0],[0,1,0],[0.25,1,0],[0.5,1,0],[0.75,1,0],[1,1,0],[0,0.25,0],[0,0.5,0],[0,0.75,0],[1,0.25,0],[1,0.5,0],[1,0.75,0]];outlineConnect=0;fontColor=#232F3E;fillColor=#C925D1;strokeColor=#ffffff;dashed=0;verticalLabelPosition=bottom;verticalAlign=top;align=center;html=1;fontSize=12;fontStyle=0;aspect=fixed;shape=mxgraph.aws4.resourceIcon;resIcon=mxgraph.aws4.rds;" vertex="1" parent="1">
          <mxGeometry x="661" y="1157" width="78" height="78" as="geometry" />
        </mxCell>
        <mxCell id="5vOCUGP1dj-LRyaD1-tD-149" style="edgeStyle=orthogonalEdgeStyle;rounded=0;orthogonalLoop=1;jettySize=auto;html=1;exitX=0.5;exitY=1;exitDx=0;exitDy=0;" edge="1" parent="1" source="5vOCUGP1dj-LRyaD1-tD-132" target="5vOCUGP1dj-LRyaD1-tD-132">
          <mxGeometry relative="1" as="geometry" />
        </mxCell>
        <mxCell id="5vOCUGP1dj-LRyaD1-tD-151" value="Dev VPC" style="text;html=1;whiteSpace=wrap;strokeColor=none;fillColor=none;align=center;verticalAlign=middle;rounded=0;" vertex="1" parent="1">
          <mxGeometry x="370" y="500" width="60" height="30" as="geometry" />
        </mxCell>
        <mxCell id="5vOCUGP1dj-LRyaD1-tD-153" value="VPC Endpoint" style="sketch=0;outlineConnect=0;fontColor=#232F3E;gradientColor=none;fillColor=#8C4FFF;strokeColor=none;dashed=0;verticalLabelPosition=bottom;verticalAlign=top;align=center;html=1;fontSize=12;fontStyle=0;aspect=fixed;pointerEvents=1;shape=mxgraph.aws4.endpoints;" vertex="1" parent="1">
          <mxGeometry x="402" y="1235" width="78" height="78" as="geometry" />
        </mxCell>
        <mxCell id="5vOCUGP1dj-LRyaD1-tD-156" style="edgeStyle=orthogonalEdgeStyle;rounded=0;orthogonalLoop=1;jettySize=auto;html=1;" edge="1" parent="1" source="5vOCUGP1dj-LRyaD1-tD-15" target="5vOCUGP1dj-LRyaD1-tD-153">
          <mxGeometry relative="1" as="geometry">
            <Array as="points">
              <mxPoint x="949" y="340" />
              <mxPoint x="440" y="340" />
            </Array>
          </mxGeometry>
        </mxCell>
        <mxCell id="5vOCUGP1dj-LRyaD1-tD-159" style="edgeStyle=orthogonalEdgeStyle;rounded=0;orthogonalLoop=1;jettySize=auto;html=1;entryX=0.5;entryY=0;entryDx=0;entryDy=0;entryPerimeter=0;exitX=0.75;exitY=1;exitDx=0;exitDy=0;exitPerimeter=0;" edge="1" parent="1" source="5vOCUGP1dj-LRyaD1-tD-20">
          <mxGeometry relative="1" as="geometry">
            <mxPoint x="959" y="552" as="sourcePoint" />
            <mxPoint x="739" y="768" as="targetPoint" />
            <Array as="points">
              <mxPoint x="959" y="500" />
              <mxPoint x="959" y="768" />
            </Array>
          </mxGeometry>
        </mxCell>
        <mxCell id="5vOCUGP1dj-LRyaD1-tD-162" value="Public Subnet - both AZs" style="text;html=1;whiteSpace=wrap;strokeColor=none;fillColor=none;align=center;verticalAlign=middle;rounded=0;" vertex="1" parent="1">
          <mxGeometry x="1330" y="462" width="150" height="30" as="geometry" />
        </mxCell>
        <mxCell id="5vOCUGP1dj-LRyaD1-tD-163" value="Internet&#xa;gateway" style="sketch=0;outlineConnect=0;fontColor=#232F3E;gradientColor=none;strokeColor=#232F3E;fillColor=#ffffff;dashed=0;verticalLabelPosition=bottom;verticalAlign=top;align=center;html=1;fontSize=12;fontStyle=0;aspect=fixed;shape=mxgraph.aws4.resourceIcon;resIcon=mxgraph.aws4.internet_gateway;" vertex="1" parent="1">
          <mxGeometry x="1820" y="402" width="60" height="60" as="geometry" />
        </mxCell>
        <mxCell id="5vOCUGP1dj-LRyaD1-tD-164" value="AWS WAF" style="sketch=0;points=[[0,0,0],[0.25,0,0],[0.5,0,0],[0.75,0,0],[1,0,0],[0,1,0],[0.25,1,0],[0.5,1,0],[0.75,1,0],[1,1,0],[0,0.25,0],[0,0.5,0],[0,0.75,0],[1,0.25,0],[1,0.5,0],[1,0.75,0]];outlineConnect=0;fontColor=#232F3E;fillColor=#DD344C;strokeColor=#ffffff;dashed=0;verticalLabelPosition=bottom;verticalAlign=top;align=center;html=1;fontSize=12;fontStyle=0;aspect=fixed;shape=mxgraph.aws4.resourceIcon;resIcon=mxgraph.aws4.waf;" vertex="1" parent="1">
          <mxGeometry x="1673.5" y="220" width="78" height="78" as="geometry" />
        </mxCell>
        <mxCell id="5vOCUGP1dj-LRyaD1-tD-165" style="edgeStyle=orthogonalEdgeStyle;rounded=0;orthogonalLoop=1;jettySize=auto;html=1;" edge="1" parent="1" source="5vOCUGP1dj-LRyaD1-tD-8" target="5vOCUGP1dj-LRyaD1-tD-17">
          <mxGeometry relative="1" as="geometry" />
        </mxCell>
        <mxCell id="5vOCUGP1dj-LRyaD1-tD-22" value="" style="rounded=0;whiteSpace=wrap;html=1;" vertex="1" parent="1">
          <mxGeometry x="1160" y="570" width="420" height="670" as="geometry" />
        </mxCell>
        <mxCell id="5vOCUGP1dj-LRyaD1-tD-39" value="&#xa;&lt;span style=&quot;color: rgb(0, 0, 0); font-family: Helvetica; font-size: 12px; font-style: normal; font-variant-ligatures: normal; font-variant-caps: normal; font-weight: 400; letter-spacing: normal; orphans: 2; text-align: center; text-indent: 0px; text-transform: none; widows: 2; word-spacing: 0px; -webkit-text-stroke-width: 0px; white-space: normal; background-color: rgb(236, 236, 236); text-decoration-thickness: initial; text-decoration-style: initial; text-decoration-color: initial; display: inline !important; float: none;&quot;&gt;Az1&amp;nbsp;&lt;/span&gt;&#xa;&#xa;" style="rounded=0;whiteSpace=wrap;html=1;" vertex="1" parent="1">
          <mxGeometry x="1179" y="590" width="380" height="630" as="geometry" />
        </mxCell>
        <mxCell id="5vOCUGP1dj-LRyaD1-tD-51" value="Az1&amp;nbsp;" style="text;html=1;whiteSpace=wrap;strokeColor=none;fillColor=none;align=center;verticalAlign=middle;rounded=0;" vertex="1" parent="1">
          <mxGeometry x="1150" y="564" width="70.5" height="30" as="geometry" />
        </mxCell>
        <mxCell id="5vOCUGP1dj-LRyaD1-tD-74" style="edgeStyle=orthogonalEdgeStyle;rounded=0;orthogonalLoop=1;jettySize=auto;html=1;entryX=0.5;entryY=0;entryDx=0;entryDy=0;" edge="1" parent="1" source="5vOCUGP1dj-LRyaD1-tD-53" target="5vOCUGP1dj-LRyaD1-tD-55">
          <mxGeometry relative="1" as="geometry" />
        </mxCell>
        <mxCell id="5vOCUGP1dj-LRyaD1-tD-53" value="" style="rounded=0;whiteSpace=wrap;html=1;" vertex="1" parent="1">
          <mxGeometry x="1195" y="660" width="350" height="160" as="geometry" />
        </mxCell>
        <mxCell id="5vOCUGP1dj-LRyaD1-tD-193" style="edgeStyle=orthogonalEdgeStyle;rounded=0;orthogonalLoop=1;jettySize=auto;html=1;" edge="1" parent="1" source="5vOCUGP1dj-LRyaD1-tD-55">
          <mxGeometry relative="1" as="geometry">
            <mxPoint x="1620" y="1070" as="targetPoint" />
            <Array as="points">
              <mxPoint x="1620" y="930" />
            </Array>
          </mxGeometry>
        </mxCell>
        <mxCell id="5vOCUGP1dj-LRyaD1-tD-55" value="" style="rounded=0;whiteSpace=wrap;html=1;" vertex="1" parent="1">
          <mxGeometry x="1195" y="850" width="350" height="160" as="geometry" />
        </mxCell>
        <mxCell id="5vOCUGP1dj-LRyaD1-tD-56" value="" style="rounded=0;whiteSpace=wrap;html=1;" vertex="1" parent="1">
          <mxGeometry x="1194" y="1040" width="350" height="160" as="geometry" />
        </mxCell>
        <mxCell id="5vOCUGP1dj-LRyaD1-tD-68" value="Private Subnet" style="text;html=1;whiteSpace=wrap;strokeColor=none;fillColor=none;align=center;verticalAlign=middle;rounded=0;" vertex="1" parent="1">
          <mxGeometry x="1160" y="590" width="120" height="20" as="geometry" />
        </mxCell>
        <mxCell id="5vOCUGP1dj-LRyaD1-tD-70" value="Frontend SG" style="text;html=1;whiteSpace=wrap;strokeColor=none;fillColor=none;align=center;verticalAlign=middle;rounded=0;" vertex="1" parent="1">
          <mxGeometry x="1179" y="666" width="120" height="20" as="geometry" />
        </mxCell>
        <mxCell id="5vOCUGP1dj-LRyaD1-tD-71" value="Backend SG" style="text;html=1;whiteSpace=wrap;strokeColor=none;fillColor=none;align=center;verticalAlign=middle;rounded=0;" vertex="1" parent="1">
          <mxGeometry x="1179" y="850" width="120" height="20" as="geometry" />
        </mxCell>
        <mxCell id="5vOCUGP1dj-LRyaD1-tD-72" value="RDS SG" style="text;html=1;whiteSpace=wrap;strokeColor=none;fillColor=none;align=center;verticalAlign=middle;rounded=0;" vertex="1" parent="1">
          <mxGeometry x="1170" y="1040" width="120" height="20" as="geometry" />
        </mxCell>
        <mxCell id="5vOCUGP1dj-LRyaD1-tD-76" value="&lt;br&gt;&lt;span style=&quot;color: rgb(35, 47, 62); font-family: Helvetica; font-size: 12px; font-style: normal; font-variant-ligatures: normal; font-variant-caps: normal; font-weight: 400; letter-spacing: normal; orphans: 2; text-align: center; text-indent: 0px; text-transform: none; widows: 2; word-spacing: 0px; -webkit-text-stroke-width: 0px; white-space: nowrap; background-color: rgb(236, 236, 236); text-decoration-thickness: initial; text-decoration-style: initial; text-decoration-color: initial; float: none; display: inline !important;&quot;&gt;Frontend Pod&lt;/span&gt;&lt;div&gt;&lt;br/&gt;&lt;/div&gt;" style="sketch=0;points=[[0,0,0],[0.25,0,0],[0.5,0,0],[0.75,0,0],[1,0,0],[0,1,0],[0.25,1,0],[0.5,1,0],[0.75,1,0],[1,1,0],[0,0.25,0],[0,0.5,0],[0,0.75,0],[1,0.25,0],[1,0.5,0],[1,0.75,0]];outlineConnect=0;fontColor=#232F3E;fillColor=#ED7100;strokeColor=#ffffff;dashed=0;verticalLabelPosition=bottom;verticalAlign=top;align=center;html=1;fontSize=12;fontStyle=0;aspect=fixed;shape=mxgraph.aws4.resourceIcon;resIcon=mxgraph.aws4.fargate;" vertex="1" parent="1">
          <mxGeometry x="1251" y="701" width="78" height="78" as="geometry" />
        </mxCell>
        <mxCell id="5vOCUGP1dj-LRyaD1-tD-78" value="&#xa;&lt;span style=&quot;color: rgb(35, 47, 62); font-family: Helvetica; font-size: 12px; font-style: normal; font-variant-ligatures: normal; font-variant-caps: normal; font-weight: 400; letter-spacing: normal; orphans: 2; text-align: center; text-indent: 0px; text-transform: none; widows: 2; word-spacing: 0px; -webkit-text-stroke-width: 0px; white-space: nowrap; background-color: rgb(236, 236, 236); text-decoration-thickness: initial; text-decoration-style: initial; text-decoration-color: initial; display: inline !important; float: none;&quot;&gt;Backend Pod&lt;/span&gt;&#xa;&#xa;" style="sketch=0;points=[[0,0,0],[0.25,0,0],[0.5,0,0],[0.75,0,0],[1,0,0],[0,1,0],[0.25,1,0],[0.5,1,0],[0.75,1,0],[1,1,0],[0,0.25,0],[0,0.5,0],[0,0.75,0],[1,0.25,0],[1,0.5,0],[1,0.75,0]];outlineConnect=0;fontColor=#232F3E;fillColor=#ED7100;strokeColor=#ffffff;dashed=0;verticalLabelPosition=bottom;verticalAlign=top;align=center;html=1;fontSize=12;fontStyle=0;aspect=fixed;shape=mxgraph.aws4.resourceIcon;resIcon=mxgraph.aws4.fargate;" vertex="1" parent="1">
          <mxGeometry x="1251" y="880" width="78" height="78" as="geometry" />
        </mxCell>
        <mxCell id="5vOCUGP1dj-LRyaD1-tD-79" value="&#xa;&lt;span style=&quot;color: rgb(35, 47, 62); font-family: Helvetica; font-size: 12px; font-style: normal; font-variant-ligatures: normal; font-variant-caps: normal; font-weight: 400; letter-spacing: normal; orphans: 2; text-align: center; text-indent: 0px; text-transform: none; widows: 2; word-spacing: 0px; -webkit-text-stroke-width: 0px; white-space: nowrap; background-color: rgb(236, 236, 236); text-decoration-thickness: initial; text-decoration-style: initial; text-decoration-color: initial; display: inline !important; float: none;&quot;&gt;Backend Pod&lt;/span&gt;&#xa;&#xa;" style="sketch=0;points=[[0,0,0],[0.25,0,0],[0.5,0,0],[0.75,0,0],[1,0,0],[0,1,0],[0.25,1,0],[0.5,1,0],[0.75,1,0],[1,1,0],[0,0.25,0],[0,0.5,0],[0,0.75,0],[1,0.25,0],[1,0.5,0],[1,0.75,0]];outlineConnect=0;fontColor=#232F3E;fillColor=#ED7100;strokeColor=#ffffff;dashed=0;verticalLabelPosition=bottom;verticalAlign=top;align=center;html=1;fontSize=12;fontStyle=0;aspect=fixed;shape=mxgraph.aws4.resourceIcon;resIcon=mxgraph.aws4.fargate;" vertex="1" parent="1">
          <mxGeometry x="1420" y="880" width="78" height="78" as="geometry" />
        </mxCell>
        <mxCell id="5vOCUGP1dj-LRyaD1-tD-80" value="RDS - Primary" style="sketch=0;points=[[0,0,0],[0.25,0,0],[0.5,0,0],[0.75,0,0],[1,0,0],[0,1,0],[0.25,1,0],[0.5,1,0],[0.75,1,0],[1,1,0],[0,0.25,0],[0,0.5,0],[0,0.75,0],[1,0.25,0],[1,0.5,0],[1,0.75,0]];outlineConnect=0;fontColor=#232F3E;fillColor=#C925D1;strokeColor=#ffffff;dashed=0;verticalLabelPosition=bottom;verticalAlign=top;align=center;html=1;fontSize=12;fontStyle=0;aspect=fixed;shape=mxgraph.aws4.resourceIcon;resIcon=mxgraph.aws4.rds;" vertex="1" parent="1">
          <mxGeometry x="1331" y="1081" width="78" height="78" as="geometry" />
        </mxCell>
        <mxCell id="5vOCUGP1dj-LRyaD1-tD-91" value="&lt;br&gt;&lt;span style=&quot;color: rgb(35, 47, 62); font-family: Helvetica; font-size: 12px; font-style: normal; font-variant-ligatures: normal; font-variant-caps: normal; font-weight: 400; letter-spacing: normal; orphans: 2; text-align: center; text-indent: 0px; text-transform: none; widows: 2; word-spacing: 0px; -webkit-text-stroke-width: 0px; white-space: nowrap; background-color: rgb(236, 236, 236); text-decoration-thickness: initial; text-decoration-style: initial; text-decoration-color: initial; float: none; display: inline !important;&quot;&gt;Frontend Pod&lt;/span&gt;&lt;div&gt;&lt;br/&gt;&lt;/div&gt;" style="sketch=0;points=[[0,0,0],[0.25,0,0],[0.5,0,0],[0.75,0,0],[1,0,0],[0,1,0],[0.25,1,0],[0.5,1,0],[0.75,1,0],[1,1,0],[0,0.25,0],[0,0.5,0],[0,0.75,0],[1,0.25,0],[1,0.5,0],[1,0.75,0]];outlineConnect=0;fontColor=#232F3E;fillColor=#ED7100;strokeColor=#ffffff;dashed=0;verticalLabelPosition=bottom;verticalAlign=top;align=center;html=1;fontSize=12;fontStyle=0;aspect=fixed;shape=mxgraph.aws4.resourceIcon;resIcon=mxgraph.aws4.fargate;" vertex="1" parent="1">
          <mxGeometry x="1430" y="701" width="78" height="78" as="geometry" />
        </mxCell>
        <mxCell id="5vOCUGP1dj-LRyaD1-tD-25" style="edgeStyle=orthogonalEdgeStyle;rounded=0;orthogonalLoop=1;jettySize=auto;html=1;exitX=0.5;exitY=1;exitDx=0;exitDy=0;" edge="1" parent="1" source="5vOCUGP1dj-LRyaD1-tD-22" target="5vOCUGP1dj-LRyaD1-tD-22">
          <mxGeometry relative="1" as="geometry" />
        </mxCell>
        <mxCell id="5vOCUGP1dj-LRyaD1-tD-187" value="EC2 NodeGroup - Add-Ons" style="sketch=0;points=[[0,0,0],[0.25,0,0],[0.5,0,0],[0.75,0,0],[1,0,0],[0,1,0],[0.25,1,0],[0.5,1,0],[0.75,1,0],[1,1,0],[0,0.25,0],[0,0.5,0],[0,0.75,0],[1,0.25,0],[1,0.5,0],[1,0.75,0]];outlineConnect=0;fontColor=#232F3E;fillColor=#ED7100;strokeColor=#ffffff;dashed=0;verticalLabelPosition=bottom;verticalAlign=top;align=center;html=1;fontSize=12;fontStyle=0;aspect=fixed;shape=mxgraph.aws4.resourceIcon;resIcon=mxgraph.aws4.ec2;" vertex="1" parent="1">
          <mxGeometry x="1457" y="596.5" width="41" height="41" as="geometry" />
        </mxCell>
        <mxCell id="5vOCUGP1dj-LRyaD1-tD-192" value="Secrets Manager" style="sketch=0;points=[[0,0,0],[0.25,0,0],[0.5,0,0],[0.75,0,0],[1,0,0],[0,1,0],[0.25,1,0],[0.5,1,0],[0.75,1,0],[1,1,0],[0,0.25,0],[0,0.5,0],[0,0.75,0],[1,0.25,0],[1,0.5,0],[1,0.75,0]];outlineConnect=0;fontColor=#232F3E;fillColor=#DD344C;strokeColor=#ffffff;dashed=0;verticalLabelPosition=bottom;verticalAlign=top;align=center;html=1;fontSize=12;fontStyle=0;aspect=fixed;shape=mxgraph.aws4.resourceIcon;resIcon=mxgraph.aws4.secrets_manager;" vertex="1" parent="1">
          <mxGeometry x="1583.75" y="1070" width="78" height="78" as="geometry" />
        </mxCell>
        <mxCell id="5vOCUGP1dj-LRyaD1-tD-115" style="edgeStyle=orthogonalEdgeStyle;rounded=0;orthogonalLoop=1;jettySize=auto;html=1;entryX=1;entryY=0.5;entryDx=0;entryDy=0;" edge="1" parent="1">
          <mxGeometry relative="1" as="geometry">
            <mxPoint x="1705" y="860.0344827586209" as="sourcePoint" />
            <mxPoint x="1544" y="1085" as="targetPoint" />
            <Array as="points">
              <mxPoint x="1650" y="860" />
              <mxPoint x="1650" y="1010" />
              <mxPoint x="1570" y="1010" />
              <mxPoint x="1570" y="1085" />
            </Array>
          </mxGeometry>
        </mxCell>
        <mxCell id="5vOCUGP1dj-LRyaD1-tD-114" value="Replication" style="edgeStyle=orthogonalEdgeStyle;rounded=0;orthogonalLoop=1;jettySize=auto;html=1;" edge="1" parent="1" source="5vOCUGP1dj-LRyaD1-tD-80" target="5vOCUGP1dj-LRyaD1-tD-109">
          <mxGeometry x="-0.0231" y="-10" relative="1" as="geometry">
            <Array as="points">
              <mxPoint x="1370" y="1190" />
              <mxPoint x="1880" y="1190" />
            </Array>
            <mxPoint as="offset" />
          </mxGeometry>
        </mxCell>
        <mxCell id="5vOCUGP1dj-LRyaD1-tD-117" style="edgeStyle=orthogonalEdgeStyle;rounded=0;orthogonalLoop=1;jettySize=auto;html=1;entryX=0.001;entryY=0.439;entryDx=0;entryDy=0;entryPerimeter=0;dashed=1;dashPattern=12 12;" edge="1" parent="1" source="5vOCUGP1dj-LRyaD1-tD-55" target="5vOCUGP1dj-LRyaD1-tD-101">
          <mxGeometry relative="1" as="geometry">
            <Array as="points">
              <mxPoint x="1610" y="960" />
              <mxPoint x="1610" y="1030" />
              <mxPoint x="1680" y="1030" />
              <mxPoint x="1680" y="1110" />
            </Array>
          </mxGeometry>
        </mxCell>
        <mxCell id="5vOCUGP1dj-LRyaD1-tD-195" style="edgeStyle=orthogonalEdgeStyle;rounded=0;orthogonalLoop=1;jettySize=auto;html=1;entryX=0.5;entryY=0;entryDx=0;entryDy=0;entryPerimeter=0;" edge="1" parent="1" source="5vOCUGP1dj-LRyaD1-tD-55" target="5vOCUGP1dj-LRyaD1-tD-80">
          <mxGeometry relative="1" as="geometry" />
        </mxCell>
        <mxCell id="5vOCUGP1dj-LRyaD1-tD-197" style="edgeStyle=orthogonalEdgeStyle;rounded=0;orthogonalLoop=1;jettySize=auto;html=1;" edge="1" parent="1" source="5vOCUGP1dj-LRyaD1-tD-196" target="5vOCUGP1dj-LRyaD1-tD-7">
          <mxGeometry relative="1" as="geometry">
            <Array as="points">
              <mxPoint x="1540" y="-160" />
              <mxPoint x="1540" y="-10" />
              <mxPoint x="1569" y="-10" />
            </Array>
          </mxGeometry>
        </mxCell>
        <mxCell id="5vOCUGP1dj-LRyaD1-tD-196" value="Actor" style="shape=umlActor;verticalLabelPosition=bottom;verticalAlign=top;html=1;outlineConnect=0;" vertex="1" parent="1">
          <mxGeometry x="1559" y="-190" width="30" height="60" as="geometry" />
        </mxCell>
        <mxCell id="5vOCUGP1dj-LRyaD1-tD-200" value="Cloudwatch" style="sketch=0;points=[[0,0,0],[0.25,0,0],[0.5,0,0],[0.75,0,0],[1,0,0],[0,1,0],[0.25,1,0],[0.5,1,0],[0.75,1,0],[1,1,0],[0,0.25,0],[0,0.5,0],[0,0.75,0],[1,0.25,0],[1,0.5,0],[1,0.75,0]];points=[[0,0,0],[0.25,0,0],[0.5,0,0],[0.75,0,0],[1,0,0],[0,1,0],[0.25,1,0],[0.5,1,0],[0.75,1,0],[1,1,0],[0,0.25,0],[0,0.5,0],[0,0.75,0],[1,0.25,0],[1,0.5,0],[1,0.75,0]];outlineConnect=0;fontColor=#232F3E;fillColor=#E7157B;strokeColor=#ffffff;dashed=0;verticalLabelPosition=bottom;verticalAlign=top;align=center;html=1;fontSize=12;fontStyle=0;aspect=fixed;shape=mxgraph.aws4.resourceIcon;resIcon=mxgraph.aws4.cloudwatch_2;" vertex="1" parent="1">
          <mxGeometry x="710" y="180" width="78" height="78" as="geometry" />
        </mxCell>
        <mxCell id="5vOCUGP1dj-LRyaD1-tD-201" value="Billing" style="image;aspect=fixed;html=1;points=[];align=center;fontSize=12;image=img/lib/azure2/general/Cost_Management_and_Billing.svg;" vertex="1" parent="1">
          <mxGeometry x="412" y="180" width="68" height="68" as="geometry" />
        </mxCell>
        <mxCell id="5vOCUGP1dj-LRyaD1-tD-202" style="edgeStyle=orthogonalEdgeStyle;rounded=0;orthogonalLoop=1;jettySize=auto;html=1;exitX=0.25;exitY=1;exitDx=0;exitDy=0;exitPerimeter=0;entryX=0.75;entryY=1;entryDx=0;entryDy=0;entryPerimeter=0;" edge="1" parent="1" source="5vOCUGP1dj-LRyaD1-tD-8">
          <mxGeometry relative="1" as="geometry">
            <mxPoint x="768.5" y="258" as="targetPoint" />
            <Array as="points">
              <mxPoint x="1560" y="298" />
              <mxPoint x="1560" y="318" />
              <mxPoint x="769" y="318" />
            </Array>
          </mxGeometry>
        </mxCell>
        <mxCell id="5vOCUGP1dj-LRyaD1-tD-203" style="edgeStyle=orthogonalEdgeStyle;rounded=0;orthogonalLoop=1;jettySize=auto;html=1;exitX=0.5;exitY=0;exitDx=0;exitDy=0;exitPerimeter=0;entryX=0;entryY=0.5;entryDx=0;entryDy=0;entryPerimeter=0;" edge="1" parent="1" source="5vOCUGP1dj-LRyaD1-tD-11" target="5vOCUGP1dj-LRyaD1-tD-8">
          <mxGeometry relative="1" as="geometry" />
        </mxCell>
        <mxCell id="5vOCUGP1dj-LRyaD1-tD-204" value="Secrets Manager" style="sketch=0;points=[[0,0,0],[0.25,0,0],[0.5,0,0],[0.75,0,0],[1,0,0],[0,1,0],[0.25,1,0],[0.5,1,0],[0.75,1,0],[1,1,0],[0,0.25,0],[0,0.5,0],[0,0.75,0],[1,0.25,0],[1,0.5,0],[1,0.75,0]];outlineConnect=0;fontColor=#232F3E;fillColor=#DD344C;strokeColor=#ffffff;dashed=0;verticalLabelPosition=bottom;verticalAlign=top;align=center;html=1;fontSize=12;fontStyle=0;aspect=fixed;shape=mxgraph.aws4.resourceIcon;resIcon=mxgraph.aws4.secrets_manager;" vertex="1" parent="1">
          <mxGeometry x="920" y="1038" width="78" height="78" as="geometry" />
        </mxCell>
        <mxCell id="5vOCUGP1dj-LRyaD1-tD-206" value="EC2 NodeGroup - Add-Ons" style="sketch=0;points=[[0,0,0],[0.25,0,0],[0.5,0,0],[0.75,0,0],[1,0,0],[0,1,0],[0.25,1,0],[0.5,1,0],[0.75,1,0],[1,1,0],[0,0.25,0],[0,0.5,0],[0,0.75,0],[1,0.25,0],[1,0.5,0],[1,0.75,0]];outlineConnect=0;fontColor=#232F3E;fillColor=#ED7100;strokeColor=#ffffff;dashed=0;verticalLabelPosition=bottom;verticalAlign=top;align=center;html=1;fontSize=12;fontStyle=0;aspect=fixed;shape=mxgraph.aws4.resourceIcon;resIcon=mxgraph.aws4.ec2;" vertex="1" parent="1">
          <mxGeometry x="834" y="640" width="41" height="41" as="geometry" />
        </mxCell>
        <mxCell id="5vOCUGP1dj-LRyaD1-tD-94" value="" style="rounded=0;whiteSpace=wrap;html=1;" vertex="1" parent="1">
          <mxGeometry x="1670" y="570" width="420" height="670" as="geometry" />
        </mxCell>
        <mxCell id="5vOCUGP1dj-LRyaD1-tD-95" value="&#xa;&lt;span style=&quot;color: rgb(0, 0, 0); font-family: Helvetica; font-size: 12px; font-style: normal; font-variant-ligatures: normal; font-variant-caps: normal; font-weight: 400; letter-spacing: normal; orphans: 2; text-align: center; text-indent: 0px; text-transform: none; widows: 2; word-spacing: 0px; -webkit-text-stroke-width: 0px; white-space: normal; background-color: rgb(236, 236, 236); text-decoration-thickness: initial; text-decoration-style: initial; text-decoration-color: initial; display: inline !important; float: none;&quot;&gt;Az1&amp;nbsp;&lt;/span&gt;&#xa;&#xa;" style="rounded=0;whiteSpace=wrap;html=1;" vertex="1" parent="1">
          <mxGeometry x="1689" y="590" width="380" height="630" as="geometry" />
        </mxCell>
        <mxCell id="5vOCUGP1dj-LRyaD1-tD-96" value="Az2" style="text;html=1;whiteSpace=wrap;strokeColor=none;fillColor=none;align=center;verticalAlign=middle;rounded=0;" vertex="1" parent="1">
          <mxGeometry x="1660" y="564" width="70.5" height="30" as="geometry" />
        </mxCell>
        <mxCell id="5vOCUGP1dj-LRyaD1-tD-97" style="edgeStyle=orthogonalEdgeStyle;rounded=0;orthogonalLoop=1;jettySize=auto;html=1;entryX=0.5;entryY=0;entryDx=0;entryDy=0;" edge="1" parent="1" source="5vOCUGP1dj-LRyaD1-tD-98" target="5vOCUGP1dj-LRyaD1-tD-100">
          <mxGeometry relative="1" as="geometry" />
        </mxCell>
        <mxCell id="5vOCUGP1dj-LRyaD1-tD-98" value="" style="rounded=0;whiteSpace=wrap;html=1;" vertex="1" parent="1">
          <mxGeometry x="1704" y="666" width="350" height="160" as="geometry" />
        </mxCell>
        <mxCell id="5vOCUGP1dj-LRyaD1-tD-194" style="edgeStyle=orthogonalEdgeStyle;rounded=0;orthogonalLoop=1;jettySize=auto;html=1;" edge="1" parent="1" source="5vOCUGP1dj-LRyaD1-tD-100">
          <mxGeometry relative="1" as="geometry">
            <mxPoint x="1630" y="1070" as="targetPoint" />
            <Array as="points">
              <mxPoint x="1630" y="930" />
            </Array>
          </mxGeometry>
        </mxCell>
        <mxCell id="5vOCUGP1dj-LRyaD1-tD-100" value="" style="rounded=0;whiteSpace=wrap;html=1;" vertex="1" parent="1">
          <mxGeometry x="1705" y="846" width="350" height="160" as="geometry" />
        </mxCell>
        <mxCell id="5vOCUGP1dj-LRyaD1-tD-101" value="" style="rounded=0;whiteSpace=wrap;html=1;" vertex="1" parent="1">
          <mxGeometry x="1704" y="1040" width="350" height="160" as="geometry" />
        </mxCell>
        <mxCell id="5vOCUGP1dj-LRyaD1-tD-102" value="Private Subnet" style="text;html=1;whiteSpace=wrap;strokeColor=none;fillColor=none;align=center;verticalAlign=middle;rounded=0;" vertex="1" parent="1">
          <mxGeometry x="1670" y="590" width="120" height="20" as="geometry" />
        </mxCell>
        <mxCell id="5vOCUGP1dj-LRyaD1-tD-103" value="Frontend SG" style="text;html=1;whiteSpace=wrap;strokeColor=none;fillColor=none;align=center;verticalAlign=middle;rounded=0;" vertex="1" parent="1">
          <mxGeometry x="1693" y="666" width="120" height="20" as="geometry" />
        </mxCell>
        <mxCell id="5vOCUGP1dj-LRyaD1-tD-104" value="Backend SG" style="text;html=1;whiteSpace=wrap;strokeColor=none;fillColor=none;align=center;verticalAlign=middle;rounded=0;" vertex="1" parent="1">
          <mxGeometry x="1700" y="846" width="120" height="20" as="geometry" />
        </mxCell>
        <mxCell id="5vOCUGP1dj-LRyaD1-tD-105" value="RDS SG" style="text;html=1;whiteSpace=wrap;strokeColor=none;fillColor=none;align=center;verticalAlign=middle;rounded=0;" vertex="1" parent="1">
          <mxGeometry x="1680" y="1040" width="120" height="20" as="geometry" />
        </mxCell>
        <mxCell id="5vOCUGP1dj-LRyaD1-tD-106" value="&lt;br&gt;&lt;span style=&quot;color: rgb(35, 47, 62); font-family: Helvetica; font-size: 12px; font-style: normal; font-variant-ligatures: normal; font-variant-caps: normal; font-weight: 400; letter-spacing: normal; orphans: 2; text-align: center; text-indent: 0px; text-transform: none; widows: 2; word-spacing: 0px; -webkit-text-stroke-width: 0px; white-space: nowrap; background-color: rgb(236, 236, 236); text-decoration-thickness: initial; text-decoration-style: initial; text-decoration-color: initial; float: none; display: inline !important;&quot;&gt;Frontend Pod&lt;/span&gt;&lt;div&gt;&lt;br/&gt;&lt;/div&gt;" style="sketch=0;points=[[0,0,0],[0.25,0,0],[0.5,0,0],[0.75,0,0],[1,0,0],[0,1,0],[0.25,1,0],[0.5,1,0],[0.75,1,0],[1,1,0],[0,0.25,0],[0,0.5,0],[0,0.75,0],[1,0.25,0],[1,0.5,0],[1,0.75,0]];outlineConnect=0;fontColor=#232F3E;fillColor=#ED7100;strokeColor=#ffffff;dashed=0;verticalLabelPosition=bottom;verticalAlign=top;align=center;html=1;fontSize=12;fontStyle=0;aspect=fixed;shape=mxgraph.aws4.resourceIcon;resIcon=mxgraph.aws4.fargate;" vertex="1" parent="1">
          <mxGeometry x="1753" y="700" width="78" height="78" as="geometry" />
        </mxCell>
        <mxCell id="5vOCUGP1dj-LRyaD1-tD-107" value="&#xa;&lt;span style=&quot;color: rgb(35, 47, 62); font-family: Helvetica; font-size: 12px; font-style: normal; font-variant-ligatures: normal; font-variant-caps: normal; font-weight: 400; letter-spacing: normal; orphans: 2; text-align: center; text-indent: 0px; text-transform: none; widows: 2; word-spacing: 0px; -webkit-text-stroke-width: 0px; white-space: nowrap; background-color: rgb(236, 236, 236); text-decoration-thickness: initial; text-decoration-style: initial; text-decoration-color: initial; display: inline !important; float: none;&quot;&gt;Backend Pod&lt;/span&gt;&#xa;&#xa;" style="sketch=0;points=[[0,0,0],[0.25,0,0],[0.5,0,0],[0.75,0,0],[1,0,0],[0,1,0],[0.25,1,0],[0.5,1,0],[0.75,1,0],[1,1,0],[0,0.25,0],[0,0.5,0],[0,0.75,0],[1,0.25,0],[1,0.5,0],[1,0.75,0]];outlineConnect=0;fontColor=#232F3E;fillColor=#ED7100;strokeColor=#ffffff;dashed=0;verticalLabelPosition=bottom;verticalAlign=top;align=center;html=1;fontSize=12;fontStyle=0;aspect=fixed;shape=mxgraph.aws4.resourceIcon;resIcon=mxgraph.aws4.fargate;" vertex="1" parent="1">
          <mxGeometry x="1763" y="880" width="78" height="78" as="geometry" />
        </mxCell>
        <mxCell id="5vOCUGP1dj-LRyaD1-tD-108" value="&#xa;&lt;span style=&quot;color: rgb(35, 47, 62); font-family: Helvetica; font-size: 12px; font-style: normal; font-variant-ligatures: normal; font-variant-caps: normal; font-weight: 400; letter-spacing: normal; orphans: 2; text-align: center; text-indent: 0px; text-transform: none; widows: 2; word-spacing: 0px; -webkit-text-stroke-width: 0px; white-space: nowrap; background-color: rgb(236, 236, 236); text-decoration-thickness: initial; text-decoration-style: initial; text-decoration-color: initial; display: inline !important; float: none;&quot;&gt;Backend Pod&lt;/span&gt;&#xa;&#xa;" style="sketch=0;points=[[0,0,0],[0.25,0,0],[0.5,0,0],[0.75,0,0],[1,0,0],[0,1,0],[0.25,1,0],[0.5,1,0],[0.75,1,0],[1,1,0],[0,0.25,0],[0,0.5,0],[0,0.75,0],[1,0.25,0],[1,0.5,0],[1,0.75,0]];outlineConnect=0;fontColor=#232F3E;fillColor=#ED7100;strokeColor=#ffffff;dashed=0;verticalLabelPosition=bottom;verticalAlign=top;align=center;html=1;fontSize=12;fontStyle=0;aspect=fixed;shape=mxgraph.aws4.resourceIcon;resIcon=mxgraph.aws4.fargate;" vertex="1" parent="1">
          <mxGeometry x="1930" y="887" width="78" height="78" as="geometry" />
        </mxCell>
        <mxCell id="5vOCUGP1dj-LRyaD1-tD-109" value="RDS - Standby" style="sketch=0;points=[[0,0,0],[0.25,0,0],[0.5,0,0],[0.75,0,0],[1,0,0],[0,1,0],[0.25,1,0],[0.5,1,0],[0.75,1,0],[1,1,0],[0,0.25,0],[0,0.5,0],[0,0.75,0],[1,0.25,0],[1,0.5,0],[1,0.75,0]];outlineConnect=0;fontColor=#232F3E;fillColor=#C925D1;strokeColor=#ffffff;dashed=0;verticalLabelPosition=bottom;verticalAlign=top;align=center;html=1;fontSize=12;fontStyle=0;aspect=fixed;shape=mxgraph.aws4.resourceIcon;resIcon=mxgraph.aws4.rds;" vertex="1" parent="1">
          <mxGeometry x="1841" y="1081" width="78" height="78" as="geometry" />
        </mxCell>
        <mxCell id="5vOCUGP1dj-LRyaD1-tD-110" value="&lt;br&gt;&lt;span style=&quot;color: rgb(35, 47, 62); font-family: Helvetica; font-size: 12px; font-style: normal; font-variant-ligatures: normal; font-variant-caps: normal; font-weight: 400; letter-spacing: normal; orphans: 2; text-align: center; text-indent: 0px; text-transform: none; widows: 2; word-spacing: 0px; -webkit-text-stroke-width: 0px; white-space: nowrap; background-color: rgb(236, 236, 236); text-decoration-thickness: initial; text-decoration-style: initial; text-decoration-color: initial; float: none; display: inline !important;&quot;&gt;Frontend Pod&lt;/span&gt;&lt;div&gt;&lt;br/&gt;&lt;/div&gt;" style="sketch=0;points=[[0,0,0],[0.25,0,0],[0.5,0,0],[0.75,0,0],[1,0,0],[0,1,0],[0.25,1,0],[0.5,1,0],[0.75,1,0],[1,1,0],[0,0.25,0],[0,0.5,0],[0,0.75,0],[1,0.25,0],[1,0.5,0],[1,0.75,0]];outlineConnect=0;fontColor=#232F3E;fillColor=#ED7100;strokeColor=#ffffff;dashed=0;verticalLabelPosition=bottom;verticalAlign=top;align=center;html=1;fontSize=12;fontStyle=0;aspect=fixed;shape=mxgraph.aws4.resourceIcon;resIcon=mxgraph.aws4.fargate;" vertex="1" parent="1">
          <mxGeometry x="1930" y="700" width="78" height="78" as="geometry" />
        </mxCell>
        <mxCell id="5vOCUGP1dj-LRyaD1-tD-111" style="edgeStyle=orthogonalEdgeStyle;rounded=0;orthogonalLoop=1;jettySize=auto;html=1;exitX=0.5;exitY=1;exitDx=0;exitDy=0;" edge="1" parent="1" source="5vOCUGP1dj-LRyaD1-tD-94" target="5vOCUGP1dj-LRyaD1-tD-94">
          <mxGeometry relative="1" as="geometry" />
        </mxCell>
        <mxCell id="5vOCUGP1dj-LRyaD1-tD-116" style="edgeStyle=orthogonalEdgeStyle;rounded=0;orthogonalLoop=1;jettySize=auto;html=1;dashed=1;dashPattern=12 12;" edge="1" parent="1" source="5vOCUGP1dj-LRyaD1-tD-100">
          <mxGeometry relative="1" as="geometry">
            <mxPoint x="1880" y="1040" as="targetPoint" />
          </mxGeometry>
        </mxCell>
        <mxCell id="5vOCUGP1dj-LRyaD1-tD-189" value="NodeGroup - Add-Ons" style="sketch=0;points=[[0,0,0],[0.25,0,0],[0.5,0,0],[0.75,0,0],[1,0,0],[0,1,0],[0.25,1,0],[0.5,1,0],[0.75,1,0],[1,1,0],[0,0.25,0],[0,0.5,0],[0,0.75,0],[1,0.25,0],[1,0.5,0],[1,0.75,0]];outlineConnect=0;fontColor=#232F3E;fillColor=#ED7100;strokeColor=#ffffff;dashed=0;verticalLabelPosition=bottom;verticalAlign=top;align=center;html=1;fontSize=12;fontStyle=0;aspect=fixed;shape=mxgraph.aws4.resourceIcon;resIcon=mxgraph.aws4.ec2;" vertex="1" parent="1">
          <mxGeometry x="1990" y="599" width="41" height="41" as="geometry" />
        </mxCell>
        <mxCell id="5vOCUGP1dj-LRyaD1-tD-212" style="edgeStyle=orthogonalEdgeStyle;rounded=0;orthogonalLoop=1;jettySize=auto;html=1;exitX=0.25;exitY=1;exitDx=0;exitDy=0;exitPerimeter=0;" edge="1" parent="1" source="5vOCUGP1dj-LRyaD1-tD-19" target="5vOCUGP1dj-LRyaD1-tD-187">
          <mxGeometry relative="1" as="geometry">
            <Array as="points">
              <mxPoint x="2010" y="402" />
              <mxPoint x="2010" y="560" />
              <mxPoint x="1519" y="560" />
              <mxPoint x="1519" y="617" />
            </Array>
          </mxGeometry>
        </mxCell>
        <mxCell id="5vOCUGP1dj-LRyaD1-tD-211" style="edgeStyle=orthogonalEdgeStyle;rounded=0;orthogonalLoop=1;jettySize=auto;html=1;exitX=0.25;exitY=1;exitDx=0;exitDy=0;exitPerimeter=0;entryX=0.75;entryY=0;entryDx=0;entryDy=0;entryPerimeter=0;" edge="1" parent="1" source="5vOCUGP1dj-LRyaD1-tD-19" target="5vOCUGP1dj-LRyaD1-tD-189">
          <mxGeometry relative="1" as="geometry" />
        </mxCell>
        <mxCell id="5vOCUGP1dj-LRyaD1-tD-214" style="edgeStyle=orthogonalEdgeStyle;rounded=0;orthogonalLoop=1;jettySize=auto;html=1;entryX=0.25;entryY=1;entryDx=0;entryDy=0;entryPerimeter=0;" edge="1" parent="1" source="5vOCUGP1dj-LRyaD1-tD-153" target="5vOCUGP1dj-LRyaD1-tD-200">
          <mxGeometry relative="1" as="geometry">
            <Array as="points">
              <mxPoint x="460" y="310" />
              <mxPoint x="730" y="310" />
            </Array>
          </mxGeometry>
        </mxCell>
        <mxCell id="5vOCUGP1dj-LRyaD1-tD-215" value="" style="rounded=0;whiteSpace=wrap;html=1;" vertex="1" parent="1">
          <mxGeometry x="494" y="510" width="420" height="80" as="geometry" />
        </mxCell>
        <mxCell id="5vOCUGP1dj-LRyaD1-tD-216" value="Internet facing ALB" style="outlineConnect=0;dashed=0;verticalLabelPosition=bottom;verticalAlign=top;align=center;html=1;shape=mxgraph.aws3.application_load_balancer;fillColor=#F58534;gradientColor=none;" vertex="1" parent="1">
          <mxGeometry x="672.75" y="510" width="54.5" height="54" as="geometry" />
        </mxCell>
        <mxCell id="5vOCUGP1dj-LRyaD1-tD-217" value="Public Subnet - both AZs" style="text;html=1;whiteSpace=wrap;strokeColor=none;fillColor=none;align=center;verticalAlign=middle;rounded=0;" vertex="1" parent="1">
          <mxGeometry x="494" y="510" width="150" height="30" as="geometry" />
        </mxCell>
        <mxCell id="5vOCUGP1dj-LRyaD1-tD-160" style="edgeStyle=orthogonalEdgeStyle;rounded=0;orthogonalLoop=1;jettySize=auto;html=1;entryX=1;entryY=0.5;entryDx=0;entryDy=0;entryPerimeter=0;" edge="1" parent="1" source="5vOCUGP1dj-LRyaD1-tD-20" target="5vOCUGP1dj-LRyaD1-tD-145">
          <mxGeometry relative="1" as="geometry" />
        </mxCell>
        <mxCell id="5vOCUGP1dj-LRyaD1-tD-219" style="edgeStyle=orthogonalEdgeStyle;rounded=0;orthogonalLoop=1;jettySize=auto;html=1;exitX=0.25;exitY=1;exitDx=0;exitDy=0;exitPerimeter=0;entryX=0.5;entryY=0;entryDx=0;entryDy=0;entryPerimeter=0;" edge="1" parent="1" source="5vOCUGP1dj-LRyaD1-tD-20" target="5vOCUGP1dj-LRyaD1-tD-206">
          <mxGeometry relative="1" as="geometry" />
        </mxCell>
        <mxCell id="5vOCUGP1dj-LRyaD1-tD-220" value="Route53" style="sketch=0;points=[[0,0,0],[0.25,0,0],[0.5,0,0],[0.75,0,0],[1,0,0],[0,1,0],[0.25,1,0],[0.5,1,0],[0.75,1,0],[1,1,0],[0,0.25,0],[0,0.5,0],[0,0.75,0],[1,0.25,0],[1,0.5,0],[1,0.75,0]];outlineConnect=0;fontColor=#232F3E;fillColor=#8C4FFF;strokeColor=#ffffff;dashed=0;verticalLabelPosition=bottom;verticalAlign=top;align=center;html=1;fontSize=12;fontStyle=0;aspect=fixed;shape=mxgraph.aws4.resourceIcon;resIcon=mxgraph.aws4.route_53;" vertex="1" parent="1">
          <mxGeometry x="546" y="402" width="78" height="78" as="geometry" />
        </mxCell>
        <mxCell id="5vOCUGP1dj-LRyaD1-tD-221" style="edgeStyle=orthogonalEdgeStyle;rounded=0;orthogonalLoop=1;jettySize=auto;html=1;entryX=0.5;entryY=0;entryDx=0;entryDy=0;entryPerimeter=0;" edge="1" parent="1" source="5vOCUGP1dj-LRyaD1-tD-220" target="5vOCUGP1dj-LRyaD1-tD-216">
          <mxGeometry relative="1" as="geometry" />
        </mxCell>
      </root>
    </mxGraphModel>
  </diagram>
</mxfile>
